<svg version="1.1" viewBox="0 135.0545724137931 1023.894452079566 199.85651724137932" xmlns="http://www.w3.org/2000/svg" style="max-height: 500px" width="1023.894452079566" height="199.85651724137932">
	<path fill-rule="evenodd" fill="black" stroke="none" d="M 99.425 173.750 C 94.954 182.045, 55 263.264, 55 264.057 C 55 264.576, 56.815 265, 59.033 265 L 63.066 265 68.283 254.056 L 73.500 243.111 95.750 243.056 C 107.988 243.025, 118 242.761, 118 242.468 C 118 242.175, 117.348 240.375, 116.551 238.468 L 115.102 235 96.551 235 C 86.348 235, 78 234.804, 78 234.563 C 78 234.323, 83.356 223.322, 89.902 210.116 L 101.803 186.105 106.652 196.262 C 109.318 201.849, 121.452 226.913, 133.615 251.960 L 155.731 297.500 159.154 297.798 L 162.577 298.096 182.911 256.298 C 194.095 233.309, 203.464 213.938, 203.730 213.250 C 204.072 212.366, 202.923 212, 199.803 212 L 195.393 212 190.270 222.750 C 187.453 228.662, 180.039 244.004, 173.795 256.842 L 162.442 280.183 137.035 226.842 C 123.062 197.504, 111.207 172.938, 110.692 172.250 C 110.177 171.563, 107.764 171, 105.331 171 C 101.531 171, 100.698 171.388, 99.425 173.750 M 248 235 C 248 279.667, 248.186 286, 249.500 286 C 250.814 286, 251 279.667, 251 235 C 251 190.333, 250.814 184, 249.500 184 C 248.186 184, 248 190.333, 248 235 M 312.996 221.250 C 311.759 224.137, 307.428 233.833, 303.373 242.794 C 299.318 251.756, 296 259.519, 296 260.044 C 296 260.570, 297.267 261, 298.816 261 C 301.286 261, 301.912 260.325, 303.912 255.500 L 306.191 250 316.500 250 L 326.809 250 329.088 255.500 C 331.088 260.325, 331.714 261, 334.184 261 C 335.733 261, 337 260.590, 337 260.089 C 337 257.774, 317.546 216, 316.468 216 C 315.796 216, 314.234 218.363, 312.996 221.250 M 359 238.500 L 359 261 370.050 261 C 382.077 261, 385.234 260.060, 388.912 255.385 C 392.457 250.878, 390.961 240.350, 386.533 238.651 C 385.193 238.137, 385.252 237.635, 386.993 234.780 C 389.814 230.153, 389.598 224.864, 386.436 221.106 C 383.176 217.232, 378.707 216.013, 367.750 216.006 L 359 216 359 238.500 M 415 238.473 L 415 261 429.500 261 L 444 261 444 258.500 L 444 256 432 256 L 420 256 420 248.500 L 420 241 429.500 241 C 438.967 241, 439 240.991, 439 238.500 C 439 236.009, 438.967 236, 429.500 236 L 420 236 420 229 L 420 222 429.750 221.829 C 435.113 221.735, 440.400 221.614, 441.500 221.560 C 442.936 221.490, 443.500 220.763, 443.500 218.981 L 443.500 216.500 429.250 216.223 L 415 215.945 415 238.473 M 467 238.434 L 467 261 481 261 L 495 261 495 258.500 L 495 256 484.021 256 L 473.042 256 472.771 236.250 L 472.500 216.500 469.750 216.184 L 467 215.867 467 238.434 M 541 216.278 C 541 216.501, 545.213 226.542, 550.363 238.592 C 557.488 255.262, 560.178 260.562, 561.613 260.758 C 563.116 260.963, 564.251 259.233, 567.188 252.258 C 569.216 247.441, 573.379 237.765, 576.438 230.756 C 579.497 223.747, 582 217.560, 582 217.006 C 582 215.566, 577.426 215.761, 576.298 217.250 C 575.777 217.938, 572.256 225.646, 568.473 234.380 C 563.137 246.701, 561.411 249.839, 560.775 248.380 C 560.325 247.346, 557.098 239.750, 553.604 231.500 C 547.473 217.021, 547.144 216.489, 544.126 216.187 C 542.407 216.014, 541 216.056, 541 216.278 M 610.796 220.750 C 609.646 223.363, 605.171 233.343, 600.852 242.929 C 596.534 252.515, 593 260.503, 593 260.679 C 593 260.856, 594.317 261, 595.927 261 C 598.502 261, 599.155 260.340, 601.371 255.500 L 603.889 250 614 250 L 624.110 250 626.542 255.500 C 628.741 260.471, 629.275 261, 632.094 261 C 634.204 261, 635.044 260.595, 634.688 259.750 C 634.399 259.063, 631.172 251.750, 627.517 243.500 C 623.862 235.250, 619.696 225.688, 618.259 222.250 C 616.821 218.813, 615.025 216, 614.266 216 C 613.508 216, 611.946 218.137, 610.796 220.750 M 654 238.389 L 654 261 656.382 261 C 658.648 261, 658.798 260.589, 659.471 252.500 L 660.180 244 665.340 244.016 L 670.500 244.032 675.500 252.490 C 680.145 260.347, 680.733 260.949, 683.785 260.974 C 687.557 261.004, 687.667 261.405, 680.840 250.243 L 677.013 243.987 681.007 239.993 C 684.610 236.390, 685 235.507, 685 230.950 C 685 219.968, 680.636 216.786, 664.750 216.185 L 654 215.779 654 238.389 M 718.500 217.896 C 710.524 221.589, 706 228.980, 706 238.319 C 706 247.969, 709.309 254.339, 716.518 258.564 C 722.864 262.283, 730.222 262.820, 736.691 260.037 C 745.040 256.446, 746.141 254.673, 745.795 245.388 L 745.500 237.500 736.500 237.521 L 727.500 237.542 727.184 240.271 C 726.867 242.998, 726.872 243, 733.434 243 L 740 243 740 247.345 C 740 252.550, 738.225 254.490, 732.233 255.836 C 727.475 256.905, 722.215 256.026, 718.394 253.522 C 712.666 249.769, 710.172 237.144, 713.752 230.020 C 718.299 220.969, 731.641 218.358, 738.880 225.103 L 741.190 227.255 743.345 225.083 L 745.500 222.912 743 220.978 C 736.099 215.641, 726.090 214.382, 718.500 217.896 M 770 238.500 L 770 261 772.500 261 L 775 261 775 251 L 775 241 786.464 241 L 797.928 241 798.214 250.750 L 798.500 260.500 801.250 260.816 L 804 261.133 804 238.500 L 804 215.867 801.250 216.184 L 798.500 216.500 798.216 226 L 797.933 235.500 786.466 235.612 L 775 235.725 775 225.862 C 775 216.009, 774.998 216, 772.500 216 L 770 216 770 238.500 M 829.667 216.667 C 829.300 217.033, 829 227.158, 829 239.167 L 829 261 843.500 261 L 858 261 858 258.500 L 858 256 846.500 256 L 835 256 835 248.500 L 835 241 844.500 241 C 853.967 241, 854 240.991, 854 238.500 C 854 236.009, 853.967 236, 844.500 236 L 835 236 834.999 228.750 L 834.998 221.500 846.249 221.500 L 857.500 221.500 857.816 218.750 L 858.133 216 844.233 216 C 836.588 216, 830.033 216.300, 829.667 216.667 M 886.367 217.918 C 882.013 220.573, 880 223.806, 880 228.146 C 880 234.164, 883.655 237.525, 893.445 240.512 C 902.417 243.248, 905 245.210, 905 249.290 C 905 257.153, 891.129 259.156, 884.890 252.194 C 882.394 249.409, 882.183 249.354, 880.085 250.936 L 877.891 252.591 880.117 255.421 C 881.341 256.978, 884.178 259.085, 886.421 260.104 C 900.607 266.546, 915.828 255.236, 909.483 242.967 C 907.698 239.516, 904.567 237.733, 896.671 235.671 C 888.743 233.601, 886 231.641, 886 228.048 C 886 220.766, 896.863 218.648, 903.890 224.561 C 906.714 226.937, 906.745 226.940, 908.521 224.976 C 910.241 223.076, 910.237 222.918, 908.405 220.862 C 903.945 215.856, 892.300 214.300, 886.367 217.918 M 934 238.473 L 934 261 948.500 261 L 963 261 963 258.500 L 963 256 951.631 256 L 940.262 256 939.711 252.609 C 939.409 250.744, 939.409 247.369, 939.712 245.109 L 940.263 241 949.132 241 C 957.889 241, 958 240.969, 958 238.538 C 958 236.119, 957.835 236.070, 948.750 235.788 L 939.500 235.500 939.205 228.782 L 938.910 222.064 950.705 221.782 L 962.500 221.500 962.500 219 L 962.500 216.500 948.250 216.223 L 934 215.945 934 238.473 M 368.206 221.788 L 363.911 222.119 364.206 228.810 L 364.500 235.500 371.649 235.497 C 380.079 235.492, 383 233.692, 383 228.500 C 383 223.042, 378.486 220.994, 368.206 221.788 M 659.643 229.696 C 659.277 234.028, 659.395 237.795, 659.914 238.314 C 660.420 238.820, 664.024 239.055, 667.923 238.835 C 676.711 238.338, 679.455 236.210, 679.455 229.888 C 679.455 223.793, 676.746 222, 667.536 222 L 660.293 222 659.643 229.696 M 312.704 235.224 C 310.667 239.967, 309 244.106, 309 244.423 C 309 244.741, 312.405 245, 316.567 245 C 325.313 245, 325.107 245.789, 319.559 233.551 L 316.409 226.601 312.704 235.224 M 611.001 233.452 C 605.151 246.144, 604.853 245, 614.010 245 L 621.971 245 620.075 240.250 C 619.032 237.637, 617.285 233.475, 616.192 231 L 614.206 226.500 611.001 233.452 M 364 248.500 L 364 256 371.865 256 C 381.770 256, 385 254.029, 385 247.984 C 385 242.337, 382.564 241, 372.277 241 L 364 241 364 248.500"/>
</svg>